<svg xmlns="http://www.w3.org/2000/svg" width="618" height="593" viewBox="0 0 618 593"><defs><style type="text/css"/></defs><g transform="translate(367.9916528287384 268.6564973416779) scale(1)"><g class="relationship"><g transform="translate(-59.00273323059082 -214.65649734167786) rotate(135)" stroke-width="5" stroke="#000000"><path d="M 59 0 L 144.75466036858268 0"/><polygon points="-24.8621506177483,0 -27.62461179749811,9.20820393249937 0,0 -27.62461179749811,-9.20820393249937" fill="#000000" transform="translate(169.616810986331 0) rotate(0)" stroke="none"/></g></g><g class="relationship"><g transform="translate(-59.00273323059082 -214.65649734167786) rotate(45)" stroke-width="5" stroke="#000000"><path d="M 59 0 L 144.75466036858268 0"/><polygon points="-24.8621506177483,0 -27.62461179749811,9.20820393249937 0,0 -27.62461179749811,-9.20820393249937" fill="#000000" transform="translate(169.616810986331 0) rotate(0)" stroke="none"/></g></g><g class="relationship"><g transform="translate(-220.65923057226865 -53) rotate(119.99999999999999)" stroke-width="5" stroke="#000000"><path d="M 59 0 L 102.80269389519125 0"/><polygon points="-24.8621506177483,0 -27.62461179749811,9.20820393249937 0,0 -27.62461179749811,-9.20820393249937" fill="#000000" transform="translate(127.66484451293954 0) rotate(0)" stroke="none"/></g></g><g class="relationship"><g transform="translate(-220.65923057226865 -53) rotate(59.99999999999999)" stroke-width="5" stroke="#000000"><path d="M 59 0 L 102.80269389519123 0"/><polygon points="-24.8621506177483,0 -27.62461179749811,9.20820393249937 0,0 -27.62461179749811,-9.20820393249937" fill="#000000" transform="translate(127.66484451293951 0) rotate(0)" stroke="none"/></g></g><g class="relationship"><g transform="translate(102.65376411108703 -53.00000000000003) rotate(59.999999999999986)" stroke-width="5" stroke="#000000"><path d="M 59 0 L 102.80269389519128 0"/><polygon points="-24.8621506177483,0 -27.62461179749811,9.20820393249937 0,0 -27.62461179749811,-9.20820393249937" fill="#000000" transform="translate(127.66484451293957 0) rotate(0)" stroke="none"/></g></g><g class="relationship"><g transform="translate(-313.9916528287384 108.65649734167795) rotate(59.99999999999999)" stroke-width="5" stroke="#000000"><path d="M 59 0 L 102.80269389519117 0"/><polygon points="-24.8621506177483,0 -27.62461179749811,9.20820393249937 0,0 -27.62461179749811,-9.20820393249937" fill="#000000" transform="translate(127.66484451293945 0) rotate(0)" stroke="none"/></g></g><g class="node"><g fill="#ffffff" stroke="#000000" stroke-width="4"><circle cx="-59.00273323059082" cy="-214.65649734167786" r="52"/></g><g transform="translate(-59.00273323059082 -214.65649734167786)"><g transform="scale(1) translate(0 0)"><g transform="translate(0 0)"><g font-family="sans-serif" font-size="50" font-weight="normal" fill="#000000" text-anchor="middle"><text xml:space="preserve" x="0" y="13" stroke="none">a</text></g></g></g></g></g><g class="node"><g fill="#ffffff" stroke="#000000" stroke-width="4"><circle cx="-220.65923057226865" cy="-53" r="52"/></g><g transform="translate(-220.65923057226865 -53)"><g transform="scale(1) translate(0 0)"><g transform="translate(0 0)"><g font-family="sans-serif" font-size="50" font-weight="normal" fill="#000000" text-anchor="middle"><text xml:space="preserve" x="0" y="13" stroke="none">b</text></g></g></g></g></g><g class="node"><g fill="#ffffff" stroke="#000000" stroke-width="4"><circle cx="102.65376411108703" cy="-53.00000000000003" r="52"/></g><g transform="translate(102.65376411108703 -53.00000000000003)"><g transform="scale(1) translate(0 0)"><g transform="translate(0 0)"><g font-family="sans-serif" font-size="50" font-weight="normal" fill="#000000" text-anchor="middle"><text xml:space="preserve" x="0" y="13" stroke="none">c</text></g></g></g></g></g><g class="node"><g fill="#ffffff" stroke="#000000" stroke-width="4"><circle cx="-313.9916528287384" cy="108.65649734167795" r="52"/></g><g transform="translate(-313.9916528287384 108.65649734167795)"><g transform="scale(1) translate(0 0)"><g transform="translate(0 0)"><g font-family="sans-serif" font-size="50" font-weight="normal" fill="#000000" text-anchor="middle"><text xml:space="preserve" x="0" y="13" stroke="none">d</text></g></g></g></g></g><g class="node"><g fill="#ffffff" stroke="#000000" stroke-width="4"><circle cx="-127.32680831579889" cy="108.65649734167789" r="52"/></g><g transform="translate(-127.32680831579889 108.65649734167789)"><g transform="scale(1) translate(0 0)"><g transform="translate(0 0)"><g font-family="sans-serif" font-size="50" font-weight="normal" fill="#000000" text-anchor="middle"><text xml:space="preserve" x="0" y="13" stroke="none">e</text></g></g></g></g></g><g class="node"><g fill="#ffffff" stroke="#000000" stroke-width="4"><circle cx="195.98618636755685" cy="108.65649734167789" r="52"/></g><g transform="translate(195.98618636755685 108.65649734167789)"><g transform="scale(1) translate(0 0)"><g transform="translate(0 0)"><g font-family="sans-serif" font-size="50" font-weight="normal" fill="#000000" text-anchor="middle"><text xml:space="preserve" x="0" y="13" stroke="none">f</text></g></g></g></g></g><g class="node"><g fill="#ffffff" stroke="#000000" stroke-width="4"><circle cx="-220.65923057226865" cy="270.3129946833558" r="52"/></g><g transform="translate(-220.65923057226865 270.3129946833558)"><g transform="scale(1) translate(0 0)"><g transform="translate(0 0)"><g font-family="sans-serif" font-size="50" font-weight="normal" fill="#000000" text-anchor="middle"><text xml:space="preserve" x="0" y="13" stroke="none">g</text></g></g></g></g></g></g></svg>